<svg xmlns="http://www.w3.org/2000/svg" width="48" height="48" viewBox="0 0 48 48"><path d="M5 12a3 3 0 0 1 3-3h11l5 5h16a3 3 0 0 1 3 3v20a3 3 0 0 1-3 3H8a3 3 0 0 1-3-3z" fill="#497B7C"/><path d="M5 19a3 3 0 0 1 3-3h32a3 3 0 0 1 3 3v18a3 3 0 0 1-3 3H8a3 3 0 0 1-3-3z" fill="#4DCEC1" stroke="#071D20" stroke-width="1.5"/><path d="M9 18h30" stroke="#9BCBC4" stroke-width="1.5" stroke-linecap="round"/><g fill="none" stroke="#071D20" stroke-width="1.8" stroke-linecap="round" stroke-linejoin="round"><path d="M19 22h11v14H19zM22 26h5m-5 4h5" stroke-dasharray="2 2"/></g></svg>
